<svg xmlns="http://www.w3.org/2000/svg" viewBox="0 0 86 86">
  <path
    d="M75.08487,51.01617H10.4982A8.62376,8.62376,0,0,0,2,59.76023v6.4957A8.62376,8.62376,0,0,0,10.4982,75H75.08487a8.62376,8.62376,0,0,0,8.4982-8.74407v-6.4957A8.62376,8.62376,0,0,0,75.08487,51.01617Zm5.00194,14.98991a5.25428,5.25428,0,0,1-5.0857,5.39634H10.59537a5.17429,5.17429,0,0,1-5.099-5.24647V58.661a5.17429,5.17429,0,0,1,5.099-5.24647H74.9877a5.17428,5.17428,0,0,1,5.099,5.24647v7.34506Z"/><path d="M62.02183,25.4353a1.77473,1.77473,0,0,0-1.74821,1.79879v25.1822a1.74892,1.74892,0,1,0,3.49642,0V27.23392A1.77458,1.77458,0,0,0,62.02183,25.4353Z"/><ellipse cx="14.32629" cy="62.55989" rx="1.6997" ry="1.74888"/><ellipse cx="24.52419" cy="62.55989" rx="1.6997" ry="1.74888"/><ellipse cx="34.7221" cy="62.55989" rx="1.6997" ry="1.74888"/><ellipse cx="44.92" cy="62.55989" rx="1.6997" ry="1.74888"/><path d="M72.35682,60.6097H54.87538a1.79952,1.79952,0,0,0,0,3.59757H72.357a1.79951,1.79951,0,0,0-.00016-3.59757Z"/><path d="M56.81745,27.58328a5.29834,5.29834,0,0,1,1.49224-3.71106,1.78615,1.78615,0,0,0,0-2.47289,1.66725,1.66725,0,0,0-2.40336,0,8.92839,8.92839,0,0,0,.00016,12.36774,1.68308,1.68308,0,0,0,1.20335.51072,1.65568,1.65568,0,0,0,1.2-.51072,1.78615,1.78615,0,0,0,0-2.47289A5.2971,5.2971,0,0,1,56.81745,27.58328Z"/><path d="M67.92647,21.3995a1.66723,1.66723,0,0,0-2.40336,0,1.78613,1.78613,0,0,0,0,2.47289,5.35611,5.35611,0,0,1-.00351,7.42212,1.78615,1.78615,0,0,0,0,2.47289,1.67305,1.67305,0,0,0,2.40671,0,8.92859,8.92859,0,0,0,.00016-12.3679Z"/><path d="M53.49978,18.93021a1.78613,1.78613,0,0,0,0-2.47289,1.66725,1.66725,0,0,0-2.40336,0,16.08547,16.08547,0,0,0,0,22.259,1.66911,1.66911,0,0,0,2.40336,0,1.78613,1.78613,0,0,0,0-2.47289A12.5132,12.5132,0,0,1,53.49978,18.93021Z"/><path d="M72.733,16.45732a1.66725,1.66725,0,0,0-2.40336,0,1.78613,1.78613,0,0,0,0,2.47289,12.5134,12.5134,0,0,1,0,17.31336,1.78614,1.78614,0,0,0,0,2.4729,1.66911,1.66911,0,0,0,2.40336,0A16.08568,16.08568,0,0,0,72.733,16.45732Z"/><path d="M48.69322,13.98442a1.78613,1.78613,0,0,0,0-2.47289,1.66725,1.66725,0,0,0-2.40336,0,23.22986,23.22986,0,0,0,0,32.15039,1.66911,1.66911,0,0,0,2.40336,0,1.78613,1.78613,0,0,0,0-2.47289A19.65106,19.65106,0,0,1,48.69322,13.98442Z"/><path d="M77.53959,11.5117a1.66723,1.66723,0,0,0-2.40336,0,1.78613,1.78613,0,0,0,0,2.47289,19.65126,19.65126,0,0,1,0,27.20477,1.78613,1.78613,0,0,0,0,2.47289,1.66911,1.66911,0,0,0,2.40336,0A23.23006,23.23006,0,0,0,77.53959,11.5117Z"
  />
</svg>
