<svg xmlns="http://www.w3.org/2000/svg" viewBox="0 0 86 86">
  <path
    d="M69.05034,30.73726a1.94166,1.94166,0,0,0,2.76088,0,21.46821,21.46821,0,0,0,0-30.16111,1.94152,1.94152,0,0,0-2.76063,0,1.97757,1.97757,0,0,0,0,2.78166,17.48793,17.48793,0,0,1,0,24.59753,1.97766,1.97766,0,0,0-.00026,2.78193ZM16.94941.57615a1.94152,1.94152,0,0,0-2.76063,0,21.46821,21.46821,0,0,0,0,30.16111,1.94167,1.94167,0,0,0,2.76089,0,1.97756,1.97756,0,0,0,0-2.78166,17.48793,17.48793,0,0,1,0-24.59753A1.97812,1.97812,0,0,0,16.94941.57614ZM28.507,5.37968a1.94152,1.94152,0,0,0-2.76063,0,14.62822,14.62822,0,0,0,0,20.55432,1.94169,1.94169,0,0,0,2.76089,0,1.97757,1.97757,0,0,0,0-2.78167,10.67247,10.67247,0,0,1,0-14.99073A1.97813,1.97813,0,0,0,28.507,5.37968ZM57.49274,25.93374a1.94168,1.94168,0,0,0,2.76088,0,14.62822,14.62822,0,0,0,0-20.55432,1.94152,1.94152,0,0,0-2.76063,0,1.97757,1.97757,0,0,0,0,2.78166,10.67244,10.67244,0,0,1,0,14.99073,1.97766,1.97766,0,0,0-.00026,2.78193ZM68.31377,86l-22.667-62.01363a8.68033,8.68033,0,1,0-5.2938,0L17.68595,86M58.33156,70.07373,45.711,56.88246l5.64308-5.89826ZM38.22373,15.65684a4.77627,4.77627,0,1,1,4.77613,4.813A4.8,4.8,0,0,1,38.22373,15.65684Zm4.77613,12.47107L49.85525,46.883l-6.85539,7.1653L36.14448,46.883ZM34.64561,50.9842l5.64307,5.89826L27.66816,70.07373Zm8.35425,7.89022L58.781,75.36928H27.21868Z"
  />
</svg>
