<svg xmlns="http://www.w3.org/2000/svg" viewBox="0 0 86 86">
  <path
    d="M50.368,43.0044l18.4427-18.51974a5.09919,5.09919,0,0,0-.7704-7.8318L44.58809.87087a5.13823,5.13823,0,0,0-7.2282,1.55986,5.34254,5.34254,0,0,0-.77274,2.88886l0,24.29671-12.193-12.32645a5.08884,5.08884,0,1,0-7.21172,7.18166L35.55934,43.00064,17.18241,61.52789a5.08951,5.08951,0,1,0,7.21172,7.18355L36.58717,56.385l0,24.281a5.37142,5.37142,0,0,0,.77264,2.89727,5.12946,5.12946,0,0,0,7.2283,1.56342L68.03841,69.35031a5.101,5.101,0,0,0,.7704-7.83368ZM47.58717,14.68551l10.36662,6.97685-10.36662,10.408Zm0,56.63966V53.94037l10.36662,10.408Z"
  />
</svg>
