<svg xmlns="http://www.w3.org/2000/svg" viewBox="0 0 86 86">
  <path
    d="M39.87362,38.34852c8.53938,0,12.49073,6.82857,13.70892,9.49494V24.14927a7.78261,7.78261,0,0,0-7.73-7.83407H42.95378V8.48113a7.78261,7.78261,0,0,0-7.73-7.83407h-3.865a7.78261,7.78261,0,0,0-7.73,7.83407V16.3152H20.73A7.78261,7.78261,0,0,0,13,24.14927V67.23665a7.7826,7.7826,0,0,0,7.73,7.83407H41.98139C23.75143,55.71052,30.84781,38.34852,39.87362,38.34852Z"/><path d="M67.74628,38.34852c-9.16453,0-13.04817,7.87017-13.93633,10.01373-.06063-.14625-.13824-.32359-.22741-.51879V67.23665a7.7826,7.7826,0,0,1-7.73,7.83407H41.98139A78.04246,78.04246,0,0,0,53.60188,85.054v.2989c.07077-.04979.13777-.09969.20807-.14948.0703.04979.13753.09969.20806.14948V85.054C86.23573,62.12322,78.30875,38.34852,67.74628,38.34852Z"
  />
</svg>
